<?xml version="1.0" encoding="iso-8859-1"?>
<!-- Generator: Adobe Illustrator 19.0.0, SVG Export Plug-In . SVG Version: 6.00 Build 0)  -->
<svg version="1.1" id="Layer_1" xmlns="http://www.w3.org/2000/svg" xmlns:xlink="http://www.w3.org/1999/xlink" x="0px" y="0px"
	 viewBox="0 0 512 512" style="enable-background:new 0 0 512 512;" xml:space="preserve">
<g>
	<g>
		<path d="M469.333,426.667h-10.667v-96V288c0-3.802-2.021-7.323-5.313-9.229l-160.158-92.729l-9.822-30.354
			C278.021,139.125,262.729,128,245.333,128c-11.559,0-21.888,5.228-29.29,13.382l-34.71-20.095V10.667
			C181.333,4.771,176.563,0,170.667,0H128c-2.833,0-5.542,1.125-7.542,3.125L62.146,61.438L35.125,88.458
			c-2.016,2.007-2.891,4.745-2.904,7.542H32v170.667c0,2.833,1.125,5.542,3.125,7.542l18.208,18.208v208.917
			C53.333,507.229,58.104,512,64,512s10.667-4.771,10.667-10.667V291.427l83.152-116.428l36.405,21.078L96.521,498.052
			c-1.063,3.24-0.479,6.802,1.521,9.552c2,2.76,5.208,4.396,8.625,4.396h32c4.354,0,8.292-2.656,9.896-6.708L171.484,448h147.698
			l22.922,57.292c1.604,4.052,5.542,6.708,9.896,6.708h32c3.417,0,6.625-1.635,8.625-4.396c2-2.75,2.583-6.313,1.521-9.552
			l-74.145-229.164l117.332,67.932v89.846h-10.667c-5.896,0-10.667,4.771-10.667,10.667v64c0,5.896,4.771,10.667,10.667,10.667
			h42.667c5.896,0,10.667-4.771,10.667-10.667v-64C480,431.438,475.229,426.667,469.333,426.667z M160,21.333v45.829l-16.746-45.829
			H160z M123.719,30.031l26.832,73.435L87.048,66.702L123.719,30.031z M62.646,271.552l-9.313-9.302V192h66.12L62.646,271.552z
			 M134.688,170.667H53.333v-56.161l85.931,49.751L134.688,170.667z M60.021,93.729l11.417-11.417l134.414,77.827l-4.909,15.169
			L60.021,93.729z M180.018,426.667l19.902-49.743l27.361,49.743H180.018z M216.438,362.667h57.792l-28.896,52.531L216.438,362.667z
			 M214.159,341.333l17.07-42.667h28.208l17.07,42.667H214.159z M263.385,426.667l27.361-49.743l19.902,49.743H263.385z
			 M369.333,490.667h-10.104l-82.667-206.625c-1.604-4.052-5.542-6.708-9.896-6.708H224c-4.354,0-8.292,2.656-9.896,6.708
			l-82.667,206.625h-10.104l106.25-328.417c2.5-7.729,9.625-12.917,17.75-12.917s15.25,5.188,17.75,12.917L369.333,490.667z
			 M310.184,238.547l-7.171-22.164l134.32,77.763v18.021L310.184,238.547z M458.667,490.667h-21.333V448h21.333V490.667z"/>
	</g>
</g>
<g>
</g>
<g>
</g>
<g>
</g>
<g>
</g>
<g>
</g>
<g>
</g>
<g>
</g>
<g>
</g>
<g>
</g>
<g>
</g>
<g>
</g>
<g>
</g>
<g>
</g>
<g>
</g>
<g>
</g>
</svg>
